#!OML:ASF H:\Terrain\Patient Classification 1\Animal1\Tuesday\Animal1.ASF
:FULLY-SPECIFIED
:DEGREES
3351
root 12.0965 15.5504 1.20891 -338.759 -2.80557 2.50711
lowerback 34.3409 0.664884 0.111035
upperback 8.77362 0.810371 -0.293178
thorax -7.74463 0.377448 -0.661331
lowerneck -9.02356 -1.65965 -12.4194
upperneck -28.3848 0.586227 11.617
head -7.23079 0.713884 6.10601
rclavicle -7.55382e-015 1.59028e-015
rhumerus 12.9406 14.3557 -79.8107
rradius 99.6331
rwrist 14.0005
rhand 35.1191 -17.0517
rfingers 7.12502
rthumb 58.2409 -32.555
lclavicle -7.55382e-015 1.59028e-015
lhumerus 28.6243 -20.9834 86.4315
lradius 93.4949
lwrist -60.546
lhand 14.6904 58.3536
lfingers 7.12502
lthumb 39.5601 83.7108
rfemur -57.5189 2.04598 20.246
rtibia 57.8339
rfoot -13.2633 -19.3441
rtoes -2.9084
lfemur -61.7011 -2.99164 -19.0729
ltibia 43.0681
lfoot -4.43279 -1.74823
ltoes -6.37706
3352
root 12.0952 15.5389 1.20701 -338.697 -2.81094 2.43183
lowerback 34.0627 0.630142 0.201961
upperback 8.95104 0.802533 -0.239324
thorax -7.44739 0.374156 -0.646222
lowerneck -8.95039 -1.68276 -12.9002
upperneck -28.703 0.638255 11.8924
head -7.35574 0.772052 6.30431
rclavicle -6.75868e-015 3.57812e-015
rhumerus 13.3196 14.4205 -79.5997
rradius 99.4939
rwrist 14.3995
rhand 33.6514 -16.6682
rfingers 7.12502
rthumb 56.9563 -33.2905
lclavicle -6.75868e-015 3.57812e-015
lhumerus 29.04 -21.4344 85.9861
lradius 93.8877
lwrist -60.4206
lhand 14.5867 58.571
lfingers 7.12502
lthumb 39.4625 83.957
rfemur -57.6454 2.00195 20.3845
rtibia 57.9151
rfoot -13.1871 -19.3719
rtoes -3.83887
lfemur -61.8359 -2.90385 -19.0306
ltibia 43.0976
lfoot -4.40655 -1.78301
ltoes -7.20144
3353
root 12.0927 15.5323 1.20169 -338.689 -2.78832 2.43763
lowerback 33.9324 0.582454 0.290647
upperback 9.05648 0.768635 -0.278523
thorax -7.28278 0.359961 -0.720472
lowerneck -9.08314 -1.71974 -13.0372
upperneck -28.7698 0.639183 12.0178
head -7.35498 0.782924 6.37585
rclavicle -6.75868e-015 5.96354e-015
rhumerus 13.4571 14.6113 -79.4423
rradius 99.505
rwrist 15.0042
rhand 31.8219 -18.2712
rfingers 7.12502
rthumb 55.337 -36.1633
lclavicle -6.75868e-015 5.96354e-015
lhumerus 29.0974 -19.9462 86.8801
lradius 92.7185
lwrist -62.8937
lhand 12.481 48.8819
lfingers 7.12502
lthumb 37.4755 74.8219
rfemur -57.7306 1.98253 20.411
rtibia 58.0031
rfoot -13.1196 -19.3815
rtoes -4.39198
lfemur -61.9246 -2.87019 -19.0675
ltibia 43.1674
lfoot -4.47144 -1.72891
ltoes -9.24934
3354
root 12.0855 15.528 1.19563 -338.695 -2.83696 2.49813
lowerback 33.9899 0.625437 0.170469
upperback 9.00253 0.78074 -0.296631
thorax -7.36405 0.36552 -0.680897
lowerneck -9.06531 -1.70117 -13.0682
upperneck -28.7761 0.678039 12.072
head -7.36419 0.801247 6.40048
rclavicle 1.03368e-014 1.03368e-014
rhumerus 13.3519 14.7567 -79.3924
rradius 99.5856
rwrist 15.2046
rhand 31.5362 -20.0289
rfingers 7.12502
rthumb 55.0825 -38.1078
lclavicle 1.03368e-014 1.03368e-014
lhumerus 29.0622 -18.7418 87.6423
lradius 92.5263
lwrist -62.9785
lhand 13.0112 44.068
lfingers 7.12502
lthumb 37.9764 69.8736
rfemur -57.8195 2.02045 20.3507
rtibia 58.0644
rfoot -13.1643 -19.2244
rtoes -3.66424
lfemur -61.9916 -2.89665 -19.0613
ltibia 43.2878
lfoot -4.53094 -1.62535
ltoes -9.93975
3355
root 12.0756 15.5201 1.18685 -338.709 -2.83389 2.36392
lowerback 34.0093 0.642621 0.207216
upperback 8.96471 0.816359 -0.266951
thorax -7.41212 0.380984 -0.682409
lowerneck -9.04456 -1.69688 -13.047
upperneck -28.7579 0.698356 12.1565
head -7.36146 0.80149 6.42591
rclavicle 1.19271e-015 -6.75868e-015
rhumerus 13.3392 14.7895 -79.4486
rradius 99.5705
rwrist 15.3453
rhand 31.1959 -20.4046
rfingers 7.12502
rthumb 54.7788 -38.7021
lclavicle 1.19271e-015 -6.75868e-015
lhumerus 29.2055 -17.9099 88.0741
lradius 93.4287
lwrist -60.2058
lhand 17.3299 44.4448
lfingers 7.12502
lthumb 42.04 69.0214
rfemur -57.9006 2.0953 20.509
rtibia 58.1085
rfoot -13.5333 -18.8462
rtoes -1.45209
lfemur -62.0843 -2.88767 -18.8002
ltibia 43.4086
lfoot -4.52682 -1.56453
ltoes -10.3757
3356
root 12.0704 15.519 1.18097 -338.811 -2.73392 2.21175
lowerback 34.1875 0.62041 0.37599
upperback 8.84905 0.849533 -0.220366
thorax -7.60268 0.394079 -0.73752
lowerneck -9.26381 -1.76668 -12.7347
upperneck -28.3713 0.563541 12.0424
head -7.17456 0.710762 6.31184
rclavicle -1.47101e-014 -3.97569e-015
rhumerus 13.2348 14.653 -79.5043
rradius 99.5224
rwrist 15.4889
rhand 32.0414 -20.5973
rfingers 7.12502
rthumb 55.5323 -38.3438
lclavicle -1.47101e-014 -3.97569e-015
lhumerus 29.1956 -17.6462 88.3476
lradius 94.7532
lwrist -56.5785
lhand 22.7498 49.1201
lfingers 7.12502
lthumb 47.0876 71.7476
rfemur -57.8081 2.01094 20.7442
rtibia 58.1502
rfoot -13.8638 -18.5781
rtoes -0.23848
lfemur -62.0575 -2.89885 -18.5857
ltibia 43.5112
lfoot -4.53823 -1.50932
ltoes -10.2505
3357
root 12.0649 15.5131 1.17359 -338.894 -2.76828 2.19086
lowerback 34.1823 0.618204 0.440935
upperback 8.84228 0.858696 -0.308937
thorax -7.60603 0.399335 -0.868488
lowerneck -9.43106 -1.82023 -12.4688
upperneck -28.1069 0.471679 12.0018
head -7.04375 0.642101 6.23795
rclavicle -1.23246e-014 5.56597e-015
rhumerus 13.4652 13.3727 -79.8276
rradius 97.6779
rwrist 16.4086
rhand 21.6159 -2.23113
rfingers 7.12502
rthumb 46.0374 -25.3101
lclavicle -1.23246e-014 5.56597e-015
lhumerus 29.3066 -17.9139 88.1576
lradius 95.6414
lwrist -54.3786
lhand 25.5349 55.2216
lfingers 7.12502
lthumb 49.6518 76.6252
rfemur -57.784 1.94862 20.8443
rtibia 58.2201
rfoot -13.8055 -18.5498
rtoes -0.887138
lfemur -62.0454 -2.86464 -18.5461
ltibia 43.6076
lfoot -4.46916 -1.43862
ltoes -8.72184
3358
root 12.0512 15.5019 1.15846 -338.984 -2.86526 2.23271
lowerback 34.1446 0.68081 0.333737
upperback 8.86788 0.890735 -0.399187
thorax -7.56383 0.416074 -0.917417
lowerneck -9.32766 -1.8112 -12.4239
upperneck -28.1416 0.491673 12.083
head -7.07221 0.63937 6.26058
rclavicle 3.18055e-015 -3.57812e-015
rhumerus 13.5324 13.1393 -79.8386
rradius 97.3436
rwrist 16.521
rhand 20.2238 -0.279319
rfingers 7.12502
rthumb 44.7435 -23.8792
lclavicle 3.18055e-015 -3.57812e-015
lhumerus 29.354 -18.7428 87.6062
lradius 95.423
lwrist -55.4372
lhand 22.8401 57.5425
lfingers 7.12502
lthumb 47.1711 80.1329
rfemur -57.8457 1.97444 20.8743
rtibia 58.3292
rfoot -13.767 -18.5264
rtoes -1.14522
lfemur -62.0493 -2.82386 -18.5181
ltibia 43.6866
lfoot -4.37206 -1.41005
ltoes -7.49562
3359
root 12.0386 15.4968 1.14421 -339.11 -2.81821 2.20012
lowerback 34.1536 0.666737 0.42334
upperback 8.89179 0.897886 -0.449514
thorax -7.53902 0.420315 -1.02037
lowerneck -9.08638 -1.79759 -12.4613
upperneck -28.3402 0.523166 12.1996
head -7.18035 0.645918 6.3191
rclavicle 3.57812e-015 -8.15017e-015
rhumerus 13.3935 12.9145 -79.8903
rradius 97.1339
rwrist 16.6185
rhand 18.9309 1.08637
rfingers 7.12502
rthumb 43.5378 -22.9667
lclavicle 3.57812e-015 -8.15017e-015
lhumerus 29.3439 -20.3023 86.5741
lradius 94.1289
lwrist -59.3964
lhand 15.9349 56.3932
lfingers 7.12502
lthumb 40.7309 81.3946
rfemur -57.8358 1.91285 21.0107
rtibia 58.4697
rfoot -13.8325 -18.4774
rtoes -0.945438
lfemur -62.0055 -2.91937 -18.3471
ltibia 43.7542
lfoot -4.36359 -1.29978
ltoes -7.68162
